<?xml version="1.0" encoding="utf-8"?>
<!-- Generator: Adobe Illustrator 16.0.0, SVG Export Plug-In . SVG Version: 6.00 Build 0)  -->
<!DOCTYPE svg PUBLIC "-//W3C//DTD SVG 1.1//EN" "http://www.w3.org/Graphics/SVG/1.1/DTD/svg11.dtd">
<svg version="1.1" id="Layer_1" xmlns="http://www.w3.org/2000/svg" xmlns:xlink="http://www.w3.org/1999/xlink" x="0px" y="0px"
	 width="363px" height="275px" viewBox="0 0 363 275" enable-background="new 0 0 363 275" xml:space="preserve">
<g>
	<g>
		<path fill="#293980" d="M16.86,181.488l47.374-95.404l47.373,95.404c0,0-39.917-62.944-47.373-62.944
			C56.777,118.544,16.86,181.488,16.86,181.488z"/>
		<path fill="#BE1E2D" d="M123.964,176.525L74.037,82.433l105.139,17.096c0,0-74.415-4.24-78.76,1.819
			C96.072,107.407,123.964,176.525,123.964,176.525z"/>
	</g>
	<path fill="none" stroke="#A6A8AB" stroke-width="2.1609" stroke-linecap="round" stroke-miterlimit="10" d="M210.463,96.865"/>
	<g>
		<g>
			<g>
				<g>
					<g>
						<path fill="#293980" d="M115.08,136.126l1.564-2.712l9.742-18.345l1.036-2.053c0.302-0.603,0.723-1.469,1.263-2.599
							c2.21,0.025,3.823,0.038,4.84,0.038c1.771,0,3.408-0.012,4.915-0.038l2.748,7.854l5.591,15.105l1.092,2.75
							c-2.175-0.025-3.495-0.038-3.96-0.038c-1.056,0-2.608,0.013-4.657,0.038c-0.551-2.072-1.347-4.508-2.388-7.308h-9.48
							c-1.092,2.21-2.221,4.646-3.388,7.308c-2.338-0.025-3.771-0.038-4.299-0.038C118.744,136.089,117.204,136.102,115.08,136.126z
							 M129.662,123.338h5.851c-1.454-4.424-2.25-6.862-2.388-7.314c-0.828,1.843-1.531,3.353-2.107,4.531L129.662,123.338z"/>
						<path fill="#293980" d="M154.417,136.126c0.623-6.103,0.998-12.82,1.123-20.153l-8.017,0.208l0.095-2.091
							c0.05-1.117,0.087-2.342,0.112-3.673c3.565,0.025,7.72,0.038,12.465,0.038l4.65-0.019h4.52l2.447-0.019l-0.113,1.845
							c-0.05,0.989-0.084,1.807-0.104,2.454c-0.019,0.647-0.027,1.135-0.027,1.465c-2.686-0.138-4.899-0.208-6.643-0.208h-1.317
							c-0.189,2.218-0.335,4.268-0.437,6.147c-0.139,2.694-0.246,5.311-0.322,7.849s-0.113,4.59-0.113,6.157
							c-2.059-0.025-3.389-0.038-3.99-0.038C158.206,136.089,156.764,136.102,154.417,136.126z"/>
						<path fill="#293980" d="M171.98,136.126c0.239-2.21,0.429-4.2,0.567-5.971c0.138-1.77,0.258-3.823,0.358-6.159
							s0.177-4.799,0.227-7.393c0.051-2.592,0.076-4.655,0.076-6.187c1.568,0.038,2.837,0.057,3.804,0.057
							c1.004,0,2.229-0.028,3.672-0.085c1.443-0.056,2.85-0.084,4.219-0.084c1.606,0,3.038,0.063,4.293,0.188
							c0.941,0.088,1.798,0.27,2.57,0.546c0.772,0.276,1.422,0.612,1.949,1.008s0.967,0.838,1.318,1.328s0.624,1.064,0.819,1.724
							c0.194,0.659,0.292,1.365,0.292,2.119c0,0.841-0.107,1.629-0.32,2.364c-0.214,0.734-0.55,1.425-1.008,2.072
							c-0.458,0.647-1.036,1.206-1.732,1.676c-0.697,0.471-1.674,0.951-2.929,1.441l0.979,2.392c0.275,0.666,0.57,1.344,0.885,2.034
							l2.523,5.519c0.113,0.239,0.314,0.709,0.604,1.413c-2.071-0.025-3.464-0.038-4.179-0.038c-0.903,0-2.385,0.013-4.442,0.038
							c-0.201-0.653-0.565-1.865-1.093-3.635c-0.214-0.741-0.396-1.312-0.547-1.714c-0.303-0.891-0.748-2.141-1.339-3.748
							l-1.942-5.33c0.678,0.126,1.344,0.188,1.996,0.188c0.917,0,1.749-0.138,2.495-0.415c0.747-0.276,1.313-0.703,1.695-1.28
							s0.574-1.187,0.574-1.827c0-0.54-0.145-1.014-0.433-1.422c-0.289-0.408-0.744-0.712-1.365-0.914
							c-0.622-0.201-1.579-0.301-2.873-0.301c-0.439,0-0.895,0.009-1.365,0.028c-0.471,0.019-1.021,0.035-1.647,0.047
							c-0.161,2.574-0.304,5.713-0.428,9.417c-0.124,3.705-0.204,7.339-0.241,10.905c-2.1-0.025-3.464-0.038-4.092-0.038
							C175.192,136.089,173.879,136.102,171.98,136.126z"/>
					</g>
				</g>
			</g>
		</g>
		<g>
			<g>
				<path fill="#BE1E2D" d="M197.785,135.731c-0.163-2.674-0.352-4.815-0.565-6.422c1.409,0.628,2.664,1.064,3.765,1.309
					c1.101,0.245,2.066,0.368,2.896,0.368c1.095,0,1.966-0.16,2.613-0.48s0.972-0.794,0.972-1.422c0-0.213-0.031-0.417-0.095-0.612
					c-0.063-0.194-0.182-0.414-0.358-0.659c-0.176-0.245-0.428-0.511-0.755-0.8l-3.548-3.089c-0.831-0.703-1.409-1.211-1.736-1.525
					c-0.667-0.641-1.187-1.237-1.558-1.79c-0.371-0.552-0.642-1.114-0.812-1.686s-0.254-1.177-0.254-1.817
					c0-0.766,0.135-1.517,0.404-2.251c0.271-0.734,0.675-1.422,1.215-2.063c0.54-0.64,1.256-1.192,2.147-1.657
					c0.892-0.464,1.846-0.782,2.862-0.951c1.018-0.169,2.065-0.254,3.146-0.254c2.122,0,4.433,0.245,6.932,0.735
					c0.037,0.866,0.081,1.661,0.132,2.382c0.05,0.722,0.169,1.987,0.357,3.795c-1.155-0.464-2.21-0.788-3.164-0.97
					c-0.954-0.182-1.777-0.273-2.468-0.273c-0.979,0-1.792,0.182-2.438,0.546c-0.647,0.365-0.97,0.816-0.97,1.356
					c0,0.251,0.05,0.496,0.15,0.734c0.101,0.239,0.288,0.518,0.564,0.838c0.276,0.32,0.641,0.672,1.093,1.055
					c0.452,0.383,1.161,0.951,2.128,1.705l1.356,1.074c0.401,0.327,0.835,0.722,1.3,1.187c0.464,0.465,0.866,0.923,1.205,1.375
					s0.6,0.866,0.781,1.243c0.183,0.376,0.317,0.756,0.405,1.139c0.088,0.383,0.132,0.794,0.132,1.234c0,1.13-0.271,2.207-0.81,3.23
					c-0.54,1.023-1.307,1.865-2.298,2.524c-0.992,0.659-2.081,1.121-3.268,1.384s-2.439,0.396-3.758,0.396
					C203.454,136.616,200.887,136.321,197.785,135.731z"/>
				<path fill="#BE1E2D" d="M218.25,136.126l0.374-4.822l0.486-9.417l0.205-6.667c0.013-0.715,0.02-1.431,0.02-2.147
					c0-0.54-0.007-1.425-0.02-2.656c1.658,0.038,2.989,0.057,3.995,0.057c0.967,0,2.291-0.028,3.975-0.085
					c1.684-0.056,3.109-0.084,4.277-0.084c1.683,0,2.93,0.107,3.74,0.32c0.81,0.213,1.541,0.549,2.194,1.007
					c0.653,0.458,1.193,0.996,1.62,1.61c0.427,0.615,0.747,1.315,0.961,2.1s0.32,1.585,0.32,2.401c0,1.683-0.408,3.221-1.224,4.614
					c-0.816,1.394-1.966,2.436-3.447,3.126c-1.481,0.691-3.146,1.036-4.991,1.036c-0.678,0-1.463-0.075-2.354-0.226
					c-0.101-0.577-0.289-1.438-0.565-2.58s-0.502-1.99-0.678-2.543c0.552,0.113,1.13,0.169,1.732,0.169
					c1.269,0,2.213-0.304,2.835-0.913c0.621-0.609,0.932-1.353,0.932-2.232c0-0.427-0.069-0.807-0.207-1.14
					c-0.138-0.333-0.357-0.605-0.659-0.819c-0.301-0.213-0.634-0.351-0.998-0.414s-0.778-0.094-1.243-0.094
					c-0.452,0-0.923,0.013-1.412,0.038l-1.582,0.113c-0.162,2.424-0.286,5.117-0.373,8.08c-0.162,5.399-0.242,8.639-0.242,9.719
					v2.448l-3.752-0.038C221.643,136.089,220.335,136.102,218.25,136.126z"/>
				<path fill="#BE1E2D" d="M257.191,109.928c2.008,0,3.941,0.271,5.801,0.81c1.857,0.54,3.484,1.403,4.879,2.59
					c1.393,1.187,2.436,2.552,3.125,4.096c0.691,1.544,1.037,3.321,1.037,5.33c0,2.11-0.381,4.046-1.141,5.811
					s-1.855,3.262-3.285,4.492c-1.432,1.23-3.141,2.131-5.123,2.703c-1.984,0.571-4.051,0.857-6.197,0.857
					c-2.123,0-4.156-0.28-6.103-0.838s-3.639-1.462-5.076-2.712s-2.458-2.64-3.061-4.172c-0.603-1.532-0.904-3.233-0.904-5.104
					c0-2.75,0.638-5.164,1.912-7.242s3.164-3.701,5.669-4.869C251.229,110.512,254.053,109.928,257.191,109.928z M256.852,115.597
					c-1.443,0-2.75,0.355-3.917,1.064c-1.168,0.709-2.065,1.695-2.693,2.957s-0.942,2.615-0.942,4.059
					c0,1.331,0.286,2.549,0.857,3.654s1.44,1.968,2.608,2.589c1.169,0.622,2.405,0.933,3.71,0.933c1.395,0,2.672-0.349,3.834-1.045
					c1.16-0.697,2.047-1.676,2.654-2.938c0.609-1.262,0.914-2.583,0.914-3.965c0-1.343-0.281-2.583-0.848-3.72
					c-0.564-1.136-1.393-2.018-2.486-2.646C259.451,115.911,258.221,115.597,256.852,115.597z"/>
				<path fill="#BE1E2D" d="M273.852,136.126c0.239-2.21,0.429-4.2,0.566-5.971c0.139-1.77,0.259-3.823,0.359-6.159
					s0.176-4.799,0.227-7.393c0.05-2.592,0.075-4.655,0.075-6.187c1.569,0.038,2.838,0.057,3.805,0.057
					c1.004,0,2.228-0.028,3.672-0.085c1.443-0.056,2.85-0.084,4.218-0.084c1.607,0,3.038,0.063,4.294,0.188
					c0.941,0.088,1.798,0.27,2.57,0.546c0.772,0.276,1.422,0.612,1.949,1.008s0.967,0.838,1.318,1.328
					c0.351,0.49,0.624,1.064,0.819,1.724c0.194,0.659,0.291,1.365,0.291,2.119c0,0.841-0.106,1.629-0.319,2.364
					c-0.214,0.734-0.55,1.425-1.008,2.072c-0.459,0.647-1.036,1.206-1.733,1.676c-0.696,0.471-1.673,0.951-2.929,1.441l0.979,2.392
					c0.276,0.666,0.571,1.344,0.886,2.034l2.523,5.519c0.113,0.239,0.313,0.709,0.603,1.413c-2.07-0.025-3.463-0.038-4.178-0.038
					c-0.903,0-2.385,0.013-4.442,0.038c-0.201-0.653-0.565-1.865-1.094-3.635c-0.213-0.741-0.396-1.312-0.547-1.714
					c-0.302-0.891-0.748-2.141-1.339-3.748l-1.941-5.33c0.678,0.126,1.343,0.188,1.996,0.188c0.916,0,1.748-0.138,2.495-0.415
					c0.747-0.276,1.313-0.703,1.695-1.28s0.574-1.187,0.574-1.827c0-0.54-0.145-1.014-0.433-1.422
					c-0.289-0.408-0.744-0.712-1.366-0.914c-0.621-0.201-1.579-0.301-2.872-0.301c-0.439,0-0.895,0.009-1.365,0.028
					c-0.471,0.019-1.021,0.035-1.648,0.047c-0.16,2.574-0.303,5.713-0.427,9.417c-0.124,3.705-0.204,7.339-0.241,10.905
					c-2.1-0.025-3.464-0.038-4.092-0.038C277.063,136.089,275.75,136.102,273.852,136.126z"/>
				<path fill="#BE1E2D" d="M305.484,136.126c0.623-6.103,0.998-12.82,1.122-20.153l-8.016,0.208l0.094-2.091
					c0.051-1.117,0.088-2.342,0.113-3.673c3.564,0.025,7.72,0.038,12.465,0.038l4.65-0.019h4.519l2.448-0.019l-0.113,1.845
					c-0.05,0.989-0.084,1.807-0.104,2.454c-0.019,0.647-0.028,1.135-0.028,1.465c-2.685-0.138-4.898-0.208-6.643-0.208h-1.317
					c-0.189,2.218-0.335,4.268-0.436,6.147c-0.139,2.694-0.246,5.311-0.322,7.849s-0.113,4.59-0.113,6.157
					c-2.059-0.025-3.389-0.038-3.99-0.038C309.273,136.089,307.83,136.102,305.484,136.126z"/>
				<path fill="#BE1E2D" d="M322.86,135.731c-0.163-2.674-0.352-4.815-0.564-6.422c1.408,0.628,2.663,1.064,3.764,1.309
					c1.101,0.245,2.066,0.368,2.896,0.368c1.095,0,1.966-0.16,2.613-0.48c0.648-0.32,0.972-0.794,0.972-1.422
					c0-0.213-0.031-0.417-0.094-0.612c-0.063-0.194-0.183-0.414-0.358-0.659c-0.177-0.245-0.429-0.511-0.755-0.8l-3.549-3.089
					c-0.83-0.703-1.409-1.211-1.736-1.525c-0.667-0.641-1.186-1.237-1.557-1.79c-0.372-0.552-0.643-1.114-0.813-1.686
					c-0.169-0.571-0.254-1.177-0.254-1.817c0-0.766,0.135-1.517,0.404-2.251c0.271-0.734,0.675-1.422,1.215-2.063
					c0.54-0.64,1.256-1.192,2.147-1.657c0.892-0.464,1.846-0.782,2.863-0.951c1.017-0.169,2.064-0.254,3.145-0.254
					c2.122,0,4.433,0.245,6.932,0.735c0.037,0.866,0.081,1.661,0.132,2.382c0.05,0.722,0.169,1.987,0.357,3.795
					c-1.155-0.464-2.21-0.788-3.164-0.97c-0.954-0.182-1.776-0.273-2.467-0.273c-0.979,0-1.793,0.182-2.439,0.546
					c-0.646,0.365-0.97,0.816-0.97,1.356c0,0.251,0.05,0.496,0.15,0.734c0.101,0.239,0.289,0.518,0.565,0.838
					c0.275,0.32,0.64,0.672,1.092,1.055c0.452,0.383,1.161,0.951,2.129,1.705l1.355,1.074c0.402,0.327,0.835,0.722,1.3,1.187
					c0.465,0.465,0.866,0.923,1.205,1.375s0.6,0.866,0.782,1.243c0.182,0.376,0.316,0.756,0.404,1.139
					c0.088,0.383,0.132,0.794,0.132,1.234c0,1.13-0.27,2.207-0.81,3.23s-1.306,1.865-2.298,2.524s-2.081,1.121-3.268,1.384
					s-2.439,0.396-3.758,0.396C328.529,136.616,325.962,136.321,322.86,135.731z"/>
			</g>
		</g>
	</g>
</g>
</svg>
