<?xml version="1.0" encoding="utf-8"?>
<!-- Generator: Adobe Illustrator 16.0.0, SVG Export Plug-In . SVG Version: 6.00 Build 0)  -->
<!DOCTYPE svg PUBLIC "-//W3C//DTD SVG 1.1//EN" "http://www.w3.org/Graphics/SVG/1.1/DTD/svg11.dtd">
<svg version="1.1" id="Layer_1" xmlns="http://www.w3.org/2000/svg" xmlns:xlink="http://www.w3.org/1999/xlink" x="0px" y="0px"
	 width="363px" height="375px" viewBox="0 0 363 375" enable-background="new 0 0 363 375" xml:space="preserve">
<g>
	<g>
		<g>
			
				<line fill="none" stroke="#333333" stroke-width="0.7737" stroke-miterlimit="10" x1="251.333" y1="119.585" x2="251.37" y2="119.623"/>
			<path fill="none" stroke="#333333" stroke-width="0.7737" stroke-miterlimit="10" d="M263.075,119.585l0.037,0.038h0.074
				c0.206,0.024,0.289,0.152,0.406,0.313c0.056,0.08,1.057,2.175,1.057,2.948c0,0.984-0.18,2.119-0.69,3.292
				c0,0-6.041,8.604-6.176,8.691l9.765,103.891l-13.958,16.656l-14.349-16.656l10.123-103.807c-0.143-0.026-6.271-8.514-6.473-8.987
				c-0.002-0.007-0.002-0.012-0.002-0.012c-0.482-1.153-0.67-2.263-0.668-3.217c0-1.323,0.317-2.344,0.628-2.814
				c0.111-0.149,0.198-0.281,0.4-0.297L263.075,119.585z"/>
		</g>
		<g>
			
				<line fill="none" stroke="#EB5E21" stroke-width="0.7737" stroke-miterlimit="10" x1="247.548" y1="119.585" x2="247.583" y2="119.623"/>
			<path fill="none" stroke="#EB5E21" stroke-width="0.7737" stroke-miterlimit="10" d="M259.287,119.585l0.037,0.038h0.074
				c0.206,0.024,0.289,0.152,0.407,0.313c0.058,0.08,1.06,2.175,1.06,2.948c0,0.984-0.184,2.119-0.694,3.292
				c0,0-6.038,8.604-6.174,8.691l9.763,103.891l-13.955,16.656l-14.351-16.656l10.123-103.807c-0.144-0.026-6.271-8.514-6.471-8.987
				c-0.004-0.007-0.004-0.012-0.004-0.012c-0.483-1.153-0.668-2.263-0.668-3.217c0-1.323,0.316-2.344,0.627-2.814
				c0.111-0.149,0.199-0.281,0.4-0.297L259.287,119.585z"/>
		</g>
	</g>
	<g>
		<path d="M32.524,168.669c2.142,1.27,5.791,2.697,9.281,2.697c4.998,0,7.378-2.459,7.378-5.712c0-3.332-1.983-5.156-7.061-7.06
			c-6.981-2.539-10.233-6.267-10.233-10.868c0-6.188,5.077-11.265,13.248-11.265c3.887,0,7.298,1.031,9.361,2.38l-1.666,4.998
			c-1.507-0.873-4.284-2.222-7.854-2.222c-4.125,0-6.346,2.38-6.346,5.236c0,3.253,2.221,4.681,7.219,6.584
			c6.584,2.459,10.075,5.791,10.075,11.583c0,6.822-5.315,11.582-14.28,11.582c-4.204,0-8.091-1.11-10.789-2.697L32.524,168.669z"/>
		<path d="M62.034,119.405h6.981v23.958h0.159c1.111-1.983,2.856-3.808,4.998-4.918c2.063-1.27,4.522-1.983,7.14-1.983
			c5.157,0,13.407,3.173,13.407,16.421v22.847h-6.981v-22.054c0-6.267-2.3-11.424-8.885-11.424c-4.522,0-8.013,3.173-9.361,6.981
			c-0.396,0.952-0.476,1.983-0.476,3.332v23.165h-6.981V119.405z"/>
		<path d="M135.333,165.258c0,3.967,0.08,7.457,0.317,10.472h-6.188l-0.396-6.267h-0.159c-1.745,3.094-5.871,7.14-12.693,7.14
			c-6.029,0-13.248-3.411-13.248-16.818v-22.451h6.981v21.181c0,7.298,2.301,12.296,8.568,12.296c4.68,0,7.933-3.252,9.202-6.426
			c0.396-0.952,0.635-2.221,0.635-3.57v-23.482h6.981V165.258z"/>
		<path d="M176.901,170.098c0,8.885-1.824,14.2-5.474,17.611c-3.808,3.411-9.202,4.602-14.042,4.602
			c-4.601,0-9.678-1.111-12.772-3.174l1.745-5.395c2.539,1.666,6.505,3.094,11.265,3.094c7.14,0,12.376-3.729,12.376-13.486v-4.205
			h-0.159c-2.063,3.57-6.267,6.426-12.217,6.426c-9.52,0-16.342-8.092-16.342-18.801c0-13.01,8.488-20.309,17.373-20.309
			c6.664,0,10.234,3.411,11.979,6.584h0.159l0.238-5.712h6.188c-0.238,2.697-0.317,5.791-0.317,10.472V170.098z M169.92,152.407
			c0-1.11-0.079-2.142-0.396-3.094c-1.27-4.125-4.601-7.457-9.758-7.457c-6.664,0-11.423,5.632-11.423,14.597
			c0,7.457,3.887,13.804,11.344,13.804c4.363,0,8.25-2.697,9.678-7.219c0.396-1.111,0.555-2.459,0.555-3.729V152.407z"/>
		<path d="M217.676,165.258c0,3.967,0.079,7.457,0.317,10.472h-6.188l-0.396-6.267h-0.158c-1.745,3.094-5.871,7.14-12.693,7.14
			c-6.029,0-13.248-3.411-13.248-16.818v-22.451h6.981v21.181c0,7.298,2.301,12.296,8.567,12.296c4.681,0,7.934-3.252,9.202-6.426
			c0.396-0.952,0.635-2.221,0.635-3.57v-23.482h6.981V165.258z"/>
		<path d="M226.4,119.405h6.981v56.325H226.4V119.405z"/>
		<path d="M277.011,154.945h0.158c0.952-1.349,2.222-3.094,3.332-4.363l11.345-13.248h8.329l-14.835,15.787l16.897,22.609h-8.488
			l-13.169-18.484l-3.569,4.046v14.438h-6.981v-56.325h6.981V154.945z"/>
		<path d="M332.778,166.528c0,3.332,0.158,6.584,0.556,9.202h-6.268l-0.635-4.839h-0.237c-2.063,3.015-6.268,5.712-11.741,5.712
			c-7.774,0-11.741-5.474-11.741-11.027c0-9.282,8.251-14.359,23.085-14.279v-0.793c0-3.173-0.872-8.964-8.726-8.885
			c-3.649,0-7.378,1.032-10.075,2.856l-1.587-4.68c3.174-1.983,7.854-3.332,12.693-3.332c11.82,0,14.676,8.012,14.676,15.708
			V166.528z M325.956,156.135c-7.616-0.159-16.263,1.19-16.263,8.647c0,4.601,3.015,6.664,6.505,6.664
			c5.077,0,8.33-3.173,9.44-6.426c0.238-0.714,0.317-1.507,0.317-2.221V156.135z"/>
	</g>
	<g>
		<path fill="#333333" d="M153.905,213.896l-1.811,5.484h-2.328l5.923-17.433h2.716l5.949,17.433h-2.405l-1.862-5.484H153.905z
			 M159.621,212.139l-1.733-5.018c-0.362-1.139-0.621-2.173-0.879-3.182h-0.077c-0.233,1.009-0.518,2.096-0.854,3.156l-1.707,5.043
			H159.621z"/>
		<path fill="#333333" d="M167.72,201.948h9.388v1.888h-7.112v5.793h6.569v1.863h-6.569v7.889h-2.276V201.948z"/>
		<path fill="#333333" d="M181.171,202.207c1.138-0.232,2.793-0.389,4.319-0.389c2.405,0,3.983,0.467,5.069,1.449
			c0.854,0.75,1.371,1.939,1.371,3.311c0,2.275-1.475,3.801-3.285,4.422v0.078c1.319,0.465,2.121,1.707,2.561,3.518
			c0.569,2.432,0.982,4.111,1.319,4.785h-2.328c-0.284-0.492-0.672-1.992-1.138-4.164c-0.518-2.406-1.475-3.311-3.518-3.389h-2.121
			v7.553h-2.25V202.207z M183.421,210.121h2.302c2.405,0,3.932-1.318,3.932-3.311c0-2.25-1.63-3.232-4.009-3.232
			c-1.086,0-1.837,0.104-2.225,0.207V210.121z"/>
		<path fill="#333333" d="M198.166,201.948v17.433h-2.276v-17.433H198.166z"/>
		<path fill="#333333" d="M215.082,218.838c-0.802,0.414-2.483,0.826-4.604,0.826c-4.914,0-8.586-3.104-8.586-8.844
			c0-5.484,3.698-9.156,9.104-9.156c2.146,0,3.544,0.465,4.139,0.775l-0.569,1.836c-0.827-0.413-2.043-0.724-3.491-0.724
			c-4.087,0-6.803,2.612-6.803,7.19c0,4.293,2.457,7.008,6.673,7.008c1.396,0,2.794-0.283,3.698-0.723L215.082,218.838z"/>
		<path fill="#333333" d="M221.679,213.896l-1.811,5.484h-2.327l5.923-17.433h2.716l5.948,17.433h-2.405l-1.862-5.484H221.679z
			 M227.395,212.139l-1.732-5.018c-0.362-1.139-0.621-2.173-0.88-3.182h-0.077c-0.232,1.009-0.518,2.096-0.854,3.156l-1.707,5.043
			H227.395z"/>
	</g>
	<g>
		<path fill="#333333" d="M271.372,201.948h2.276v15.544h7.448v1.889h-9.725V201.948z"/>
		<path fill="#333333" d="M284.59,203.862h-5.302v-1.914h12.905v1.914h-5.328v15.519h-2.275V203.862z"/>
		<path fill="#333333" d="M294.109,202.182c1.396-0.207,3.026-0.363,4.811-0.363c3.233,0,5.535,0.725,7.062,2.147
			c1.577,1.423,2.482,3.466,2.482,6.284c0,2.846-0.905,5.174-2.509,6.777c-1.655,1.629-4.345,2.508-7.733,2.508
			c-1.629,0-2.948-0.051-4.112-0.207V202.182z M296.386,217.621c0.569,0.104,1.396,0.104,2.276,0.104
			c4.811,0.025,7.423-2.689,7.423-7.396c0.025-4.164-2.303-6.725-7.062-6.725c-1.163,0-2.043,0.104-2.638,0.232V217.621z"/>
	</g>
</g>
</svg>
