<?xml version="1.0" encoding="utf-8"?>
<!-- Generator: Adobe Illustrator 16.0.0, SVG Export Plug-In . SVG Version: 6.00 Build 0)  -->
<!DOCTYPE svg PUBLIC "-//W3C//DTD SVG 1.1//EN" "http://www.w3.org/Graphics/SVG/1.1/DTD/svg11.dtd">
<svg version="1.1" id="Layer_1" xmlns="http://www.w3.org/2000/svg" xmlns:xlink="http://www.w3.org/1999/xlink" x="0px" y="0px"
	 width="363px" height="244px" viewBox="0 0 363 244" enable-background="new 0 0 363 244" xml:space="preserve">
<g>
	<g>
		<polygon fill="#8D976A" points="87.967,122 91.021,112.193 85.844,115.182 		"/>
		<polygon fill="#C1B49A" points="85.844,115.182 91.021,112.193 81.001,109.935 		"/>
		<polygon fill="#C48BBD" points="91.021,112.193 74.035,102.386 81.001,109.935 		"/>
		<polygon fill="#CBAED3" points="85.844,128.817 87.967,122 85.844,115.182 		"/>
		<polygon fill="#8D976A" points="81.001,109.935 74.035,102.386 74.035,108.365 		"/>
		<polygon fill="#CBAED3" points="67.069,109.935 62.226,115.182 74.035,108.365 		"/>
		<polygon fill="#CBAED3" points="67.069,134.064 74.035,135.635 62.226,128.817 		"/>
		<polygon fill="#CBAED3" points="81.001,109.935 74.035,108.365 85.844,115.182 		"/>
		<polygon fill="#CBAED3" points="81.001,134.064 85.844,128.817 74.035,135.635 		"/>
		<polygon fill="#C48BBD" points="74.035,102.386 57.049,112.193 67.069,109.935 		"/>
		<polygon fill="#CBAED3" points="60.103,122.168 62.226,128.985 62.226,115.352 		"/>
		<polygon fill="#C1B49A" points="74.035,108.365 74.035,102.386 67.069,109.935 		"/>
		<polygon fill="#C48BBD" points="74.035,141.614 91.021,131.808 81.001,134.064 		"/>
		<polygon fill="#8D976A" points="81.001,134.064 91.021,131.808 85.844,128.817 		"/>
		<polygon fill="#C1B49A" points="74.035,135.635 74.035,141.614 81.001,134.064 		"/>
		<polygon fill="#C1B49A" points="85.844,128.817 91.021,131.808 87.967,122 		"/>
		<polygon fill="#C48BBD" points="87.967,122 91.021,131.808 91.021,112.193 		"/>
		<polygon fill="#8D976A" points="67.069,134.064 74.035,141.614 74.035,135.635 		"/>
		<polygon fill="#C48BBD" points="57.049,131.808 74.035,141.614 67.069,134.064 		"/>
		<polygon fill="#C48BBD" points="57.049,112.193 57.049,131.808 60.103,122 		"/>
		<polygon fill="#C1B49A" points="62.226,115.182 57.049,112.193 60.103,122 		"/>
		<polygon fill="#8D976A" points="60.103,122 57.049,131.808 62.226,128.817 		"/>
		<polygon fill="#C1B49A" points="62.226,128.817 57.049,131.808 67.069,134.064 		"/>
		<polygon fill="#8D976A" points="67.069,109.935 57.049,112.193 62.226,115.182 		"/>
		<polygon fill="#55378E" stroke="#FFFFFF" stroke-width="1.7429" stroke-miterlimit="10" points="74.035,108.365 62.226,115.182 
			62.226,128.817 74.035,135.635 85.844,128.817 85.844,115.182 		"/>
		<polygon fill="#705DA7" points="74.035,112.872 65.984,117.52 65.984,126.817 74.035,131.465 82.086,126.817 82.086,117.52 		"/>
		<polygon fill="#978CC3" points="74.035,116.146 68.819,119.157 68.819,125.18 74.035,128.191 79.251,125.18 79.251,119.157 		"/>
	</g>
	<g>
		<path fill="#404041" d="M42.194,108.024c2.086,0,4.102,0.816,5.629,2.038c1.515,1.212,2.657,2.913,2.657,4.807
			c0,0.6-0.484,1.083-1.081,1.083c-0.597,0-1.081-0.484-1.081-1.081c0-0.987-0.662-2.174-1.846-3.122
			c-1.173-0.938-2.765-1.564-4.279-1.564c-1.514,0-3.105,0.626-4.278,1.564c-1.184,0.947-1.846,2.137-1.846,3.119
			c0,1.126,0.208,1.958,0.555,2.614c0.342,0.646,0.83,1.143,1.454,1.573c1.258,0.867,3.121,1.385,5.098,1.879
			c1.967,0.492,4.057,0.964,5.762,2.036c0.867,0.545,1.62,1.263,2.15,2.192c0.531,0.93,0.832,2.059,0.832,3.395
			c0,1.344-0.414,2.525-1.08,3.512c-0.625,0.926-1.466,1.679-2.396,2.266c-1.915,1.209-4.245,1.788-6.251,1.788
			c-2.396,0-4.78-0.787-6.607-2.209c-0.887-0.689-1.646-1.538-2.194-2.522c-0.495-0.889-0.816-1.888-0.902-2.969
			c-0.015-0.192-0.023-0.388-0.023-0.586c0-0.6,0.484-1.083,1.081-1.083c0.597,0,1.081,0.483,1.081,1.081
			c0,0.91,0.225,1.732,0.627,2.47c0.393,0.72,0.958,1.359,1.658,1.903c1.413,1.099,3.356,1.754,5.28,1.754
			c1.593,0,3.593-0.504,5.097-1.454c0.756-0.478,1.374-1.046,1.8-1.698c0.426-0.65,0.668-1.389,0.668-2.252
			c0-1.023-0.201-1.764-0.536-2.345c-0.331-0.573-0.808-1.019-1.435-1.412c-1.261-0.793-3.146-1.271-5.136-1.769
			c-1.98-0.496-4.091-1.019-5.8-2.197c-0.872-0.601-1.619-1.385-2.14-2.384c-0.516-0.989-0.804-2.179-0.804-3.583
			c0-1.895,1.142-3.595,2.657-4.807C38.093,108.841,40.109,108.024,42.194,108.024z"/>
		<path fill="#404041" d="M114.227,108.021c0.595,0,1.09,0.478,1.09,1.081v25.942c0,0.597-0.484,1.08-1.081,1.08
			c-0.358,0-0.7-0.183-0.899-0.48l-15.313-22.969v22.37c0,0.6-0.484,1.083-1.081,1.083c-0.597,0-1.081-0.484-1.081-1.081l0-25.941
			c0-0.597,0.484-1.081,1.081-1.081c0.358,0,0.7,0.183,0.898,0.48l15.313,22.97v-22.37
			C113.156,108.512,113.626,108.031,114.227,108.021z"/>
		<path fill="#404041" d="M132.967,108.022c0.445,0,0.846,0.273,1.007,0.689l10.085,25.934c0.041,0.103,0.076,0.28,0.076,0.398
			c0,0.597-0.484,1.08-1.081,1.08c-0.45,0-0.854-0.281-1.01-0.695l-3.092-7.95H126.98l-3.092,7.95
			c-0.156,0.415-0.56,0.695-1.01,0.695c-0.597,0-1.081-0.483-1.081-1.08c0-0.115,0.036-0.298,0.077-0.399l10.085-25.933
			C132.121,108.296,132.521,108.022,132.967,108.022z M132.967,112.085l-5.144,13.228h10.288L132.967,112.085z"/>
		<path fill="#404041" d="M151.695,108.021h6.485c2.818,0,5.038,1.137,6.498,2.858c1.453,1.712,2.148,3.943,2.148,6.148
			c0,2.205-0.695,4.436-2.148,6.148c-0.657,0.775-1.429,1.418-2.403,1.916c0.413,0.231,0.84,0.51,1.223,0.803
			c0.685,0.522,1.295,1.122,1.824,1.768c1.777,2.173,2.728,4.873,3.11,7.164c0.107,0.582-0.29,1.155-0.887,1.255
			s-1.159-0.314-1.246-0.899c-0.333-1.997-1.192-4.367-2.651-6.15c-0.436-0.533-0.917-1.014-1.453-1.427
			c-1.109-0.854-2.426-1.424-4.166-1.569h-5.252v8.999c0.008,0.594-0.478,1.09-1.081,1.09c-0.603,0-1.089-0.496-1.081-1.09v-10.016
			v-15.917C150.614,108.505,151.098,108.021,151.695,108.021z M152.776,110.183v13.69h5.404c2.229,0,3.786-0.842,4.85-2.095
			c1.068-1.259,1.634-2.993,1.634-4.75s-0.566-3.49-1.634-4.75c-1.064-1.254-2.621-2.095-4.85-2.095H152.776z"/>
		<path fill="#404041" d="M186.097,108.022c0.445,0,0.846,0.273,1.008,0.689l10.085,25.934c0.041,0.103,0.076,0.28,0.076,0.398
			c0,0.597-0.484,1.08-1.081,1.08c-0.45,0-0.854-0.281-1.01-0.695l-3.092-7.95H180.11l-3.092,7.95
			c-0.156,0.415-0.56,0.695-1.01,0.695c-0.597,0-1.081-0.483-1.081-1.08c0-0.115,0.036-0.298,0.077-0.399l10.085-25.933
			C185.251,108.296,185.65,108.022,186.097,108.022z M186.097,112.085l-5.144,13.228h10.288L186.097,112.085z"/>
		<path fill="#404041" d="M236.595,107.996c3.197,0.016,6.4,1.128,8.978,3.299c0.563,0.457,0.449,1.202,0.1,1.575
			c-0.335,0.356-0.999,0.51-1.493,0.078c-4.247-3.579-10.431-3.734-14.859-0.358c-0.103,0.079-0.204,0.158-0.304,0.239
			c-1.483,1.208-2.613,2.718-3.354,4.386c-1.354,3.046-1.405,6.612,0.066,9.807c2.331,5.059,7.858,7.819,13.303,6.646
			c5.109-1.102,8.848-5.349,9.333-10.541h-11.111c-0.726,0.011-1.116-0.63-1.089-1.14c0.026-0.487,0.432-1.031,1.089-1.022h12.236
			c0.606-0.008,1.087,0.483,1.09,1.092l-0.004,0.099c-0.046,6.557-4.653,12.273-11.088,13.66
			c-6.433,1.388-12.968-1.878-15.722-7.854c-1.748-3.793-1.676-8.049-0.053-11.672c0.881-1.963,2.217-3.742,3.967-5.159
			c0.108-0.088,0.218-0.174,0.329-0.259c2.452-1.869,5.362-2.824,8.277-2.874C236.392,107.996,236.494,107.996,236.595,107.996z"/>
		<path fill="#404041" d="M258.135,108.024h12.97c0.6,0,1.083,0.484,1.083,1.081s-0.484,1.081-1.081,1.081h-11.891v10.808h10.447
			c0.6,0,1.083,0.485,1.083,1.081c0,0.597-0.483,1.08-1.08,1.08h-10.45v10.809h11.889c0.6,0,1.083,0.484,1.083,1.081
			s-0.484,1.08-1.081,1.08h-12.972c-0.309,0-0.59-0.131-0.785-0.338c-0.183-0.193-0.296-0.456-0.296-0.742v-12.941v-12.998
			C257.054,108.508,257.538,108.024,258.135,108.024z"/>
		<path fill="#404041" d="M279.737,108.021c0.358,0,0.706,0.179,0.908,0.481l10.629,15.944l10.629-15.943
			c0.199-0.298,0.541-0.481,0.899-0.481c0.597,0,1.08,0.484,1.081,1.081v25.939c0,0.6-0.484,1.083-1.081,1.083
			s-1.081-0.483-1.081-1.08v-22.372l-9.548,14.322c-0.199,0.299-0.541,0.481-0.899,0.481s-0.7-0.183-0.899-0.481l-9.548-14.322
			v22.369c0,0.6-0.484,1.083-1.081,1.083s-1.081-0.483-1.081-1.08v-25.942C278.666,108.514,279.133,108.032,279.737,108.021z"/>
		<path fill="#404041" d="M320.09,108.024c2.085,0,4.102,0.816,5.629,2.038c1.515,1.212,2.657,2.913,2.657,4.807
			c0,0.6-0.485,1.083-1.081,1.083c-0.597,0-1.081-0.484-1.081-1.081c0-0.987-0.661-2.174-1.846-3.122
			c-1.173-0.938-2.765-1.564-4.278-1.564c-1.515,0-3.106,0.626-4.278,1.564c-1.185,0.947-1.847,2.137-1.847,3.119
			c0,1.126,0.209,1.958,0.556,2.614c0.342,0.646,0.83,1.143,1.454,1.573c1.258,0.867,3.121,1.385,5.098,1.879
			c1.967,0.492,4.057,0.964,5.762,2.036c0.867,0.545,1.62,1.263,2.151,2.192s0.831,2.059,0.831,3.395
			c0,1.344-0.414,2.525-1.079,3.512c-0.625,0.926-1.467,1.679-2.396,2.266c-1.915,1.209-4.245,1.788-6.251,1.788
			c-2.396,0-4.78-0.787-6.608-2.209c-0.887-0.689-1.646-1.538-2.193-2.522c-0.495-0.889-0.816-1.888-0.902-2.969
			c-0.016-0.192-0.023-0.388-0.023-0.586c0-0.6,0.484-1.083,1.081-1.083s1.081,0.483,1.081,1.081c0,0.91,0.225,1.732,0.627,2.47
			c0.393,0.72,0.958,1.359,1.657,1.903c1.413,1.099,3.356,1.754,5.281,1.754c1.593,0,3.592-0.504,5.097-1.454
			c0.756-0.478,1.374-1.046,1.801-1.698c0.426-0.65,0.668-1.389,0.668-2.252c0-1.023-0.201-1.764-0.536-2.345
			c-0.331-0.573-0.809-1.019-1.436-1.412c-1.261-0.793-3.146-1.271-5.136-1.769c-1.98-0.496-4.091-1.019-5.8-2.197
			c-0.872-0.601-1.619-1.385-2.141-2.384c-0.516-0.989-0.804-2.179-0.804-3.583c0-1.895,1.142-3.595,2.657-4.807
			C315.988,108.841,318.004,108.024,320.09,108.024z"/>
	</g>
</g>
</svg>
