<?xml version="1.0" encoding="utf-8"?>
<!-- Generator: Adobe Illustrator 16.0.0, SVG Export Plug-In . SVG Version: 6.00 Build 0)  -->
<!DOCTYPE svg PUBLIC "-//W3C//DTD SVG 1.1//EN" "http://www.w3.org/Graphics/SVG/1.1/DTD/svg11.dtd">
<svg version="1.1" id="Layer_1" xmlns="http://www.w3.org/2000/svg" xmlns:xlink="http://www.w3.org/1999/xlink" x="0px" y="0px"
	 width="363px" height="275px" viewBox="0 0 363 275" enable-background="new 0 0 363 275" xml:space="preserve">
<g>
	<polygon fill="#D0D2D3" stroke="#FFFFFF" stroke-width="0.2383" stroke-miterlimit="10" points="180.381,52.737 209.953,23.252 
		240.193,52.5 	"/>
	<polygon fill="#0071BC" stroke="#FFFFFF" stroke-width="0.2383" stroke-miterlimit="10" points="150.745,81.907 180.652,52.545 
		240.472,52.545 270.408,81.909 	"/>
	<polygon fill="#29ABE2" stroke="#FFFFFF" stroke-width="0.2383" stroke-miterlimit="10" points="120.543,115.778 150.458,81.785 
		210.275,81.785 240.217,115.784 	"/>
	<polygon fill="#D0D2D3" stroke="#FFFFFF" stroke-width="0.2383" stroke-miterlimit="10" points="180.703,115.778 210.611,81.785 
		270.436,81.785 300.369,115.784 	"/>
	<polygon fill="#0071BC" stroke="#FFFFFF" stroke-width="0.2383" stroke-miterlimit="10" points="284.987,115.784 135.004,115.792 
		135.004,149.695 285.205,149.777 	"/>
	<polygon fill="#29ABE2" stroke="#FFFFFF" stroke-width="0.2383" stroke-miterlimit="10" points="260.321,81.788 210.092,81.795 
		210.092,115.705 260.4,115.782 	"/>
	<polygon fill="#D0D2D3" stroke="#FFFFFF" stroke-width="0.2383" stroke-miterlimit="10" points="209.923,81.788 159.69,81.795 
		159.69,115.705 209.997,115.782 	"/>
	<polygon fill="#29ABE2" stroke="#FFFFFF" stroke-width="0.2383" stroke-miterlimit="10" points="185.236,149.777 135.004,149.781 
		135.004,183.682 185.309,183.766 	"/>
	<polygon fill="#D0D2D3" stroke="#FFFFFF" stroke-width="0.2383" stroke-miterlimit="10" points="235.189,149.777 184.96,149.781 
		184.96,183.682 235.265,183.766 	"/>
	<polygon fill="#29ABE2" stroke="#FFFFFF" stroke-width="0.2383" stroke-miterlimit="10" points="285.205,149.777 235.249,149.781 
		235.249,183.682 285.233,183.766 	"/>
	<polygon fill="#D0D2D3" stroke="#FFFFFF" stroke-width="0.2383" stroke-miterlimit="10" points="185.24,217.756 135.013,217.766 
		135.013,251.672 185.318,251.748 	"/>
	<polygon fill="#29ABE2" stroke="#FFFFFF" stroke-width="0.2383" stroke-miterlimit="10" points="235.662,217.756 185.433,217.766 
		185.433,251.672 235.737,251.748 	"/>
	<polygon fill="#D0D2D3" stroke="#FFFFFF" stroke-width="0.2383" stroke-miterlimit="10" points="285.484,217.756 235.258,217.766 
		235.258,251.672 285.559,251.748 	"/>
	<g>
		<polygon fill="#FF931E" stroke="#FFFFFF" stroke-width="0.2383" stroke-miterlimit="10" points="212.611,184.25 62.631,184.258 
			62.631,218.156 212.83,218.238 		"/>
	</g>
	<g>
		<g>
			<path fill="#FFFFFF" d="M72.242,199.301h-1.638v5.072h-0.665v-5.072h-1.634v-0.602h3.936V199.301z"/>
			<path fill="#FFFFFF" d="M77.396,204.373h-0.665v-2.588h-2.936v2.588h-0.665v-5.674h0.665v2.488h2.936v-2.488h0.665V204.373z"/>
			<path fill="#FFFFFF" d="M81.89,204.373h-3.006v-5.674h2.88v0.602h-2.215v1.887h2.049v0.598h-2.049v1.986h2.342V204.373z"/>
			<path fill="#FFFFFF" d="M90.985,204.373h-0.661v-3.807c0-0.301,0.019-0.668,0.055-1.104h-0.016
				c-0.063,0.256-0.12,0.439-0.17,0.551l-1.938,4.359h-0.325l-1.934-4.328c-0.056-0.127-0.112-0.32-0.17-0.582h-0.016
				c0.021,0.227,0.032,0.598,0.032,1.111v3.799h-0.641v-5.674h0.878l1.741,3.957c0.134,0.303,0.221,0.529,0.261,0.68h0.024
				c0.113-0.311,0.204-0.543,0.273-0.695l1.776-3.941h0.831V204.373z"/>
			<path fill="#FFFFFF" d="M94.763,204.467c-0.804,0-1.449-0.264-1.933-0.795c-0.484-0.529-0.726-1.219-0.726-2.068
				c0-0.912,0.247-1.641,0.74-2.184s1.164-0.814,2.013-0.814c0.784,0,1.415,0.264,1.893,0.791s0.718,1.217,0.718,2.068
				c0,0.926-0.246,1.658-0.736,2.195C96.243,204.199,95.586,204.467,94.763,204.467z M94.811,199.207
				c-0.596,0-1.08,0.215-1.452,0.645c-0.372,0.43-0.558,0.994-0.558,1.693c0,0.697,0.182,1.26,0.544,1.686
				c0.363,0.426,0.835,0.641,1.418,0.641c0.623,0,1.113-0.203,1.472-0.609c0.358-0.406,0.538-0.975,0.538-1.705
				c0-0.75-0.174-1.328-0.522-1.738C95.902,199.41,95.422,199.207,94.811,199.207z"/>
			<path fill="#FFFFFF" d="M102.651,204.373h-0.792l-0.949-1.59c-0.087-0.148-0.171-0.275-0.253-0.379
				c-0.082-0.104-0.166-0.189-0.251-0.256c-0.086-0.064-0.178-0.113-0.277-0.143c-0.099-0.031-0.21-0.047-0.334-0.047h-0.546v2.414
				h-0.665v-5.674h1.693c0.248,0,0.477,0.031,0.686,0.094c0.21,0.063,0.392,0.156,0.546,0.283c0.154,0.125,0.275,0.283,0.362,0.473
				c0.087,0.188,0.13,0.408,0.13,0.662c0,0.197-0.03,0.379-0.089,0.543c-0.06,0.166-0.144,0.313-0.253,0.441s-0.241,0.24-0.396,0.33
				c-0.154,0.092-0.328,0.162-0.52,0.213v0.016c0.095,0.043,0.177,0.09,0.247,0.145s0.137,0.117,0.2,0.191
				c0.063,0.074,0.126,0.158,0.188,0.252s0.131,0.201,0.208,0.326L102.651,204.373z M99.249,199.301v2.057h0.902
				c0.167,0,0.32-0.023,0.461-0.074s0.263-0.123,0.366-0.217c0.103-0.092,0.183-0.207,0.241-0.344
				c0.058-0.135,0.087-0.287,0.087-0.457c0-0.303-0.098-0.539-0.294-0.709c-0.197-0.17-0.481-0.256-0.853-0.256H99.249z"/>
			<path fill="#FFFFFF" d="M106.785,199.301h-1.638v5.072h-0.665v-5.072h-1.634v-0.602h3.936V199.301z"/>
			<path fill="#FFFFFF" d="M111.916,203.984c-0.569,0.322-1.203,0.482-1.899,0.482c-0.81,0-1.464-0.26-1.964-0.783
				c-0.5-0.521-0.75-1.213-0.75-2.072c0-0.879,0.277-1.6,0.833-2.162s1.259-0.844,2.11-0.844c0.617,0,1.136,0.1,1.555,0.301v0.734
				c-0.459-0.289-1.002-0.434-1.63-0.434c-0.635,0-1.156,0.219-1.563,0.656S108,200.867,108,201.564
				c0,0.717,0.189,1.281,0.566,1.691s0.889,0.615,1.535,0.615c0.443,0,0.827-0.09,1.151-0.266v-1.59h-1.242v-0.602h1.907V203.984z"
				/>
			<path fill="#FFFFFF" d="M117.625,204.373h-0.736l-0.601-1.59h-2.405l-0.566,1.59h-0.74l2.176-5.674h0.688L117.625,204.373z
				 M116.07,202.186l-0.89-2.418c-0.029-0.078-0.058-0.205-0.087-0.379h-0.016c-0.026,0.16-0.057,0.287-0.091,0.379l-0.882,2.418
				H116.07z"/>
			<path fill="#FFFFFF" d="M122.7,203.984c-0.569,0.322-1.203,0.482-1.899,0.482c-0.81,0-1.464-0.26-1.964-0.783
				c-0.5-0.521-0.75-1.213-0.75-2.072c0-0.879,0.277-1.6,0.833-2.162s1.259-0.844,2.11-0.844c0.617,0,1.136,0.1,1.555,0.301v0.734
				c-0.459-0.289-1.002-0.434-1.63-0.434c-0.635,0-1.156,0.219-1.563,0.656s-0.609,1.004-0.609,1.701
				c0,0.717,0.189,1.281,0.566,1.691s0.889,0.615,1.535,0.615c0.443,0,0.827-0.09,1.151-0.266v-1.59h-1.242v-0.602h1.907V203.984z"
				/>
			<path fill="#FFFFFF" d="M127.023,204.373h-3.006v-5.674h2.88v0.602h-2.215v1.887h2.049v0.598h-2.049v1.986h2.342V204.373z"/>
			<path fill="#FFFFFF" d="M131,202.229v2.145h-0.665v-5.674h1.559c0.606,0,1.077,0.148,1.411,0.443c0.333,0.295,0.5,0.713,0.5,1.25
				c0,0.539-0.185,0.979-0.556,1.322c-0.371,0.342-0.871,0.514-1.501,0.514H131z M131,199.301v2.326h0.696
				c0.459,0,0.809-0.105,1.05-0.314s0.362-0.506,0.362-0.889c0-0.748-0.443-1.123-1.329-1.123H131z"/>
			<path fill="#FFFFFF" d="M138.939,204.373h-0.792l-0.949-1.59c-0.087-0.148-0.171-0.275-0.253-0.379
				c-0.082-0.104-0.166-0.189-0.251-0.256c-0.086-0.064-0.178-0.113-0.277-0.143c-0.099-0.031-0.21-0.047-0.334-0.047h-0.546v2.414
				h-0.665v-5.674h1.693c0.248,0,0.477,0.031,0.686,0.094c0.21,0.063,0.392,0.156,0.546,0.283c0.154,0.125,0.275,0.283,0.362,0.473
				c0.087,0.188,0.13,0.408,0.13,0.662c0,0.197-0.03,0.379-0.089,0.543c-0.06,0.166-0.144,0.313-0.253,0.441s-0.241,0.24-0.396,0.33
				c-0.154,0.092-0.328,0.162-0.52,0.213v0.016c0.095,0.043,0.177,0.09,0.247,0.145s0.137,0.117,0.2,0.191
				c0.063,0.074,0.126,0.158,0.188,0.252s0.131,0.201,0.208,0.326L138.939,204.373z M135.537,199.301v2.057h0.902
				c0.167,0,0.32-0.023,0.461-0.074s0.263-0.123,0.366-0.217c0.103-0.092,0.183-0.207,0.241-0.344
				c0.058-0.135,0.087-0.287,0.087-0.457c0-0.303-0.098-0.539-0.294-0.709c-0.197-0.17-0.481-0.256-0.853-0.256H135.537z"/>
			<path fill="#FFFFFF" d="M142.005,204.467c-0.804,0-1.449-0.264-1.933-0.795c-0.484-0.529-0.726-1.219-0.726-2.068
				c0-0.912,0.247-1.641,0.74-2.184s1.164-0.814,2.013-0.814c0.784,0,1.415,0.264,1.893,0.791s0.718,1.217,0.718,2.068
				c0,0.926-0.246,1.658-0.736,2.195C143.484,204.199,142.828,204.467,142.005,204.467z M142.052,199.207
				c-0.596,0-1.08,0.215-1.452,0.645c-0.372,0.43-0.558,0.994-0.558,1.693c0,0.697,0.182,1.26,0.544,1.686
				c0.363,0.426,0.835,0.641,1.418,0.641c0.623,0,1.113-0.203,1.472-0.609c0.358-0.406,0.538-0.975,0.538-1.705
				c0-0.75-0.174-1.328-0.522-1.738C143.144,199.41,142.664,199.207,142.052,199.207z"/>
			<path fill="#FFFFFF" d="M149.688,204.135c-0.419,0.223-0.941,0.332-1.566,0.332c-0.807,0-1.453-0.26-1.938-0.779
				s-0.728-1.201-0.728-2.045c0-0.906,0.273-1.641,0.819-2.199s1.238-0.838,2.077-0.838c0.538,0,0.984,0.076,1.337,0.232v0.709
				c-0.406-0.227-0.854-0.34-1.345-0.34c-0.651,0-1.18,0.217-1.584,0.652s-0.607,1.016-0.607,1.744c0,0.691,0.189,1.242,0.568,1.652
				s0.875,0.615,1.489,0.615c0.57,0,1.063-0.127,1.479-0.381V204.135z"/>
			<path fill="#FFFFFF" d="M153.849,204.373h-3.006v-5.674h2.88v0.602h-2.215v1.887h2.049v0.598h-2.049v1.986h2.342V204.373z"/>
			<path fill="#FFFFFF" d="M154.676,204.143v-0.783c0.09,0.08,0.197,0.15,0.323,0.215c0.125,0.063,0.257,0.115,0.396,0.16
				c0.138,0.043,0.277,0.076,0.417,0.1c0.14,0.023,0.269,0.037,0.388,0.037c0.409,0,0.714-0.076,0.916-0.229
				s0.303-0.369,0.303-0.654c0-0.152-0.034-0.287-0.101-0.4c-0.067-0.113-0.16-0.217-0.279-0.311s-0.259-0.184-0.421-0.268
				c-0.162-0.086-0.337-0.178-0.524-0.271c-0.198-0.1-0.382-0.201-0.554-0.305c-0.172-0.104-0.321-0.217-0.447-0.34
				c-0.126-0.125-0.226-0.266-0.299-0.422c-0.072-0.156-0.108-0.342-0.108-0.553c0-0.258,0.057-0.482,0.17-0.674
				s0.262-0.348,0.447-0.473c0.185-0.123,0.395-0.217,0.631-0.277c0.236-0.061,0.477-0.09,0.722-0.09
				c0.559,0,0.967,0.066,1.223,0.201v0.748c-0.335-0.232-0.765-0.348-1.29-0.348c-0.145,0-0.29,0.014-0.435,0.045
				c-0.145,0.029-0.274,0.08-0.388,0.148s-0.206,0.156-0.277,0.264c-0.071,0.109-0.107,0.24-0.107,0.396
				c0,0.145,0.027,0.27,0.082,0.375c0.054,0.105,0.134,0.203,0.239,0.289c0.105,0.088,0.234,0.172,0.386,0.254
				c0.151,0.082,0.326,0.172,0.524,0.27c0.203,0.1,0.396,0.205,0.578,0.316c0.182,0.109,0.341,0.232,0.479,0.367
				s0.246,0.283,0.327,0.447c0.08,0.164,0.121,0.352,0.121,0.563c0,0.279-0.055,0.516-0.164,0.709
				c-0.11,0.193-0.257,0.352-0.443,0.473s-0.4,0.209-0.643,0.264c-0.243,0.053-0.499,0.08-0.768,0.08
				c-0.09,0-0.201-0.006-0.333-0.021c-0.132-0.014-0.266-0.035-0.403-0.063s-0.267-0.063-0.39-0.104S154.75,204.193,154.676,204.143
				z"/>
			<path fill="#FFFFFF" d="M158.98,204.143v-0.783c0.09,0.08,0.197,0.15,0.323,0.215c0.125,0.063,0.257,0.115,0.396,0.16
				c0.138,0.043,0.277,0.076,0.417,0.1c0.14,0.023,0.269,0.037,0.388,0.037c0.409,0,0.714-0.076,0.916-0.229
				s0.303-0.369,0.303-0.654c0-0.152-0.034-0.287-0.101-0.4c-0.067-0.113-0.16-0.217-0.279-0.311s-0.259-0.184-0.421-0.268
				c-0.162-0.086-0.337-0.178-0.524-0.271c-0.198-0.1-0.382-0.201-0.554-0.305c-0.172-0.104-0.321-0.217-0.447-0.34
				c-0.126-0.125-0.226-0.266-0.299-0.422c-0.072-0.156-0.108-0.342-0.108-0.553c0-0.258,0.057-0.482,0.17-0.674
				s0.262-0.348,0.447-0.473c0.185-0.123,0.395-0.217,0.631-0.277c0.236-0.061,0.477-0.09,0.722-0.09
				c0.559,0,0.967,0.066,1.223,0.201v0.748c-0.335-0.232-0.765-0.348-1.29-0.348c-0.145,0-0.29,0.014-0.435,0.045
				c-0.145,0.029-0.274,0.08-0.388,0.148s-0.206,0.156-0.277,0.264c-0.071,0.109-0.107,0.24-0.107,0.396
				c0,0.145,0.027,0.27,0.082,0.375c0.054,0.105,0.134,0.203,0.239,0.289c0.105,0.088,0.234,0.172,0.386,0.254
				c0.151,0.082,0.326,0.172,0.524,0.27c0.203,0.1,0.396,0.205,0.578,0.316c0.182,0.109,0.341,0.232,0.479,0.367
				s0.246,0.283,0.327,0.447c0.08,0.164,0.121,0.352,0.121,0.563c0,0.279-0.055,0.516-0.164,0.709
				c-0.11,0.193-0.257,0.352-0.443,0.473s-0.4,0.209-0.643,0.264c-0.243,0.053-0.499,0.08-0.768,0.08
				c-0.09,0-0.201-0.006-0.333-0.021c-0.132-0.014-0.266-0.035-0.403-0.063s-0.267-0.063-0.39-0.104S159.054,204.193,158.98,204.143
				z"/>
			<path fill="#FFFFFF" d="M164.768,198.699v0.57h-0.554v4.533h0.554v0.57h-1.772v-0.57h0.554v-4.533h-0.554v-0.57H164.768z"/>
			<path fill="#FFFFFF" d="M170.278,204.373h-0.815l-2.919-4.521c-0.074-0.113-0.135-0.232-0.182-0.357h-0.024
				c0.021,0.121,0.032,0.383,0.032,0.779v4.1h-0.665v-5.674h0.862l2.84,4.451c0.119,0.184,0.195,0.311,0.229,0.379h0.016
				c-0.026-0.162-0.04-0.441-0.04-0.834v-3.996h0.665V204.373z"/>
			<path fill="#FFFFFF" d="M176.007,203.984c-0.57,0.322-1.203,0.482-1.898,0.482c-0.811,0-1.465-0.26-1.965-0.783
				c-0.5-0.521-0.75-1.213-0.75-2.072c0-0.879,0.277-1.6,0.833-2.162s1.259-0.844,2.11-0.844c0.617,0,1.135,0.1,1.555,0.301v0.734
				c-0.459-0.289-1.002-0.434-1.629-0.434c-0.637,0-1.157,0.219-1.563,0.656s-0.609,1.004-0.609,1.701
				c0,0.717,0.189,1.281,0.566,1.691s0.888,0.615,1.535,0.615c0.443,0,0.826-0.09,1.152-0.266v-1.59h-1.242v-0.602h1.906V203.984z"
				/>
			<path fill="#FFFFFF" d="M183.404,204.135c-0.419,0.223-0.941,0.332-1.566,0.332c-0.807,0-1.453-0.26-1.938-0.779
				s-0.728-1.201-0.728-2.045c0-0.906,0.272-1.641,0.818-2.199s1.238-0.838,2.077-0.838c0.538,0,0.983,0.076,1.337,0.232v0.709
				c-0.406-0.227-0.854-0.34-1.345-0.34c-0.651,0-1.18,0.217-1.584,0.652c-0.405,0.436-0.607,1.016-0.607,1.744
				c0,0.691,0.188,1.242,0.567,1.652s0.875,0.615,1.489,0.615c0.57,0,1.063-0.127,1.479-0.381V204.135z"/>
			<path fill="#FFFFFF" d="M187.565,204.373h-3.006v-5.674h2.88v0.602h-2.216v1.887h2.049v0.598h-2.049v1.986h2.342V204.373z"/>
			<path fill="#FFFFFF" d="M193.23,204.373h-0.814l-2.92-4.521c-0.073-0.113-0.134-0.232-0.182-0.357h-0.023
				c0.021,0.121,0.031,0.383,0.031,0.779v4.1h-0.664v-5.674h0.862l2.84,4.451c0.119,0.184,0.195,0.311,0.229,0.379h0.016
				c-0.026-0.162-0.039-0.441-0.039-0.834v-3.996h0.664V204.373z"/>
			<path fill="#FFFFFF" d="M198.073,199.301h-1.638v5.072h-0.665v-5.072h-1.634v-0.602h3.937V199.301z"/>
			<path fill="#FFFFFF" d="M203.029,204.373h-0.791l-0.95-1.59c-0.087-0.148-0.171-0.275-0.253-0.379s-0.165-0.189-0.251-0.256
				c-0.086-0.064-0.178-0.113-0.277-0.143c-0.099-0.031-0.21-0.047-0.334-0.047h-0.546v2.414h-0.664v-5.674h1.692
				c0.248,0,0.477,0.031,0.687,0.094s0.392,0.156,0.546,0.283c0.154,0.125,0.275,0.283,0.362,0.473
				c0.087,0.188,0.131,0.408,0.131,0.662c0,0.197-0.03,0.379-0.09,0.543c-0.059,0.166-0.144,0.313-0.253,0.441
				s-0.241,0.24-0.396,0.33c-0.154,0.092-0.328,0.162-0.521,0.213v0.016c0.096,0.043,0.178,0.09,0.248,0.145
				c0.069,0.055,0.136,0.117,0.199,0.191s0.126,0.158,0.188,0.252c0.062,0.094,0.131,0.201,0.207,0.326L203.029,204.373z
				 M199.627,199.301v2.057h0.902c0.166,0,0.319-0.023,0.461-0.074c0.141-0.051,0.263-0.123,0.365-0.217
				c0.104-0.092,0.184-0.207,0.241-0.344c0.059-0.135,0.088-0.287,0.088-0.457c0-0.303-0.099-0.539-0.295-0.709
				s-0.48-0.256-0.853-0.256H199.627z"/>
			<path fill="#FFFFFF" d="M206.815,204.373h-3.006v-5.674h2.88v0.602h-2.216v1.887h2.049v0.598h-2.049v1.986h2.342V204.373z"/>
		</g>
	</g>
</g>
</svg>
